<svg viewBox="-19 1 511 511.99855"  height="3rem" xmlns="http://www.w3.org/2000/svg" 
xmlns:xlink="http://www.w3.org/1999/xlink"><linearGradient id="a" 
gradientUnits="userSpaceOnUse" x1=".20079964" x2="172.51967964" y1="256.00123964" y2="256.00123964">
<stop offset="0" stop-color="#6addc8"/>
<stop offset="1" stop-color="#49b4a9"/>
</linearGradient><path d="m394.339844 127.957031c-49.59375-58.71875-104.035156-102.679687-119.539063-114.753906-22.585937-17.585937-54.105469-17.605469-76.65625-.042969-31.925781 24.863282-80.085937 68.074219-119.507812 114.78125-51.847657 61.421875-78.136719 115.453125-78.136719 160.59375 0 46.542969 12.621094 82.726563 37.511719 107.539063 22.265625 22.191406 53.554687 33.921875 90.492187 33.921875 33.355469 0 62.652344-11.160156 85.9375-32.492188-2.480468 27.527344-7.238281 46.265625-14.484375 57.5625-6.875 10.722656-16.8125 16.929688-47.238281 16.929688-11.046875 0-20 8.957031-20 20 0 11.046875 8.953125 20.003906 20 20.003906h167.578125c11.046875 0 20.003906-8.957031 20.003906-20.003906 0-11.042969-8.957031-20-20.003906-20-30.425781 0-40.359375-6.207032-47.238281-16.929688-7.351563-11.464844-12.144532-30.578125-14.59375-58.773437 23.625 22.125 52.992187 33.703125 86.046875 33.703125 17.09375 0 33.070312-2.507813 47.492187-7.457032 10.449219-3.585937 16.011719-14.960937 12.429688-25.410156-3.585938-10.445312-14.960938-16.015625-25.410156-12.425781-10.234376 3.511719-21.847657 5.289063-34.511719 5.289063-27.667969 0-50.789063-11.355469-68.71875-33.753907-14.363281-17.941406-20.050781-36.523437-20.082031-36.632812-.027344-.101563-.070313-.195313-.101563-.292969-.148437-.472656-.308594-.941406-.484375-1.398438-.066406-.167968-.136719-.335937-.207031-.5-.1875-.449218-.390625-.886718-.609375-1.320312-.078125-.152344-.15625-.304688-.238282-.453125-.242187-.449219-.503906-.882813-.777343-1.308594-.066407-.105469-.136719-.210937-.207031-.3125-.320313-.480469-.660157-.945312-1.023438-1.394531-.023438-.027344-.046875-.058594-.070312-.085938-2.59375-3.195312-6.171876-5.632812-10.457032-6.742187-9.660156-2.503906-19.460937 2.472656-23.316406 11.332031-.054688.125-.105469.25-.160156.375-.164063.394532-.316406.796875-.453125 1.210938-.105469.304687-.199219.617187-.292969.925781-.042969.15625-.101562.304687-.144531.460937-.765625 2.851563-19.589844 69.894532-88.664063 69.894532-40.148437 0-88.003906-17.601563-88.003906-101.460938 0-74.761718 108.976562-186.769531 182.222656-243.816406 8.082032-6.289062 19.386719-6.273438 27.496094.042969 30.363281 23.644531 76.136719 64.699219 113.5625 109.007812 44.96875 53.234375 68.734375 99.835938 68.734375 134.765625 0 17.148438-2.070313 32.449219-6.15625 45.472656-3.304687 10.539063 2.558594 21.765626 13.097656 25.070313 10.539063 3.304687 21.765625-2.558594 25.070313-13.097656 5.300781-16.902344 7.988281-36.230469 7.988281-57.445313 0-45.136718-26.300781-99.164062-78.175781-160.578125zm0 0" 
fill="url(#a)"/></svg>